<svg width="172" height="172" viewBox="0 0 172 172" fill="none" xmlns="http://www.w3.org/2000/svg">
<g clip-path="url(#clip0)" filter="url(#filter0_d)">
<path d="M163 81.9993C163.029 67.9749 159.389 54.1853 152.442 42.0025C151.493 40.3266 150.487 38.6791 149.398 37.0587C148.222 35.2616 146.954 33.5276 145.599 31.864C144.37 30.2721 143.029 28.7074 141.661 27.1995C140.013 25.4111 138.282 23.7079 136.493 22.0604C134.846 20.5513 133.114 19.0991 131.327 17.758C130.042 16.7248 128.701 15.7756 127.361 14.8536C125.266 13.4569 123.142 12.1443 120.936 10.9158H120.881C117.158 8.88512 113.282 7.14738 109.289 5.71986C106.343 4.64704 103.329 3.76951 100.267 3.09469C97.0403 2.32963 93.7651 1.78828 90.4638 1.47434C90.2611 1.43356 90.056 1.40513 89.8496 1.39153C87.2516 1.1394 84.6536 0.999748 82 0.999748C37.2659 0.999748 1.00049 37.2651 1.00049 81.9993C1.00172 90.1702 2.22532 98.2953 4.63172 106.104C5.70948 109.508 7.00723 112.839 8.51386 116.076C9.81655 118.88 11.2713 121.613 12.8718 124.259L12.9275 124.343C15.2708 128.165 17.9331 131.781 20.8882 135.151C22.511 137.059 24.2463 138.868 26.083 140.571L26.1386 140.627C28.6982 143.121 31.4433 145.417 34.3503 147.497C36.1374 148.81 37.9815 150.039 39.8527 151.213C41.808 152.386 43.8189 153.475 45.8582 154.481C47.6652 155.424 49.5204 156.271 51.4163 157.022H51.4435C53.316 157.804 55.2144 158.502 57.1697 159.117C58.9853 159.704 60.8565 160.234 62.7278 160.681C86.8894 166.588 112.424 161.072 131.992 145.718C151.56 130.363 162.992 106.872 163 81.9993Z" fill="#C03A2B"/>
<path d="M136.493 22.0603C134.846 20.5512 133.114 19.099 131.327 17.758C74.9676 25.1193 32.8525 73.2029 32.9822 130.041C32.9699 135.887 33.4272 141.724 34.3504 147.497C36.1376 148.81 37.9817 150.038 39.8529 151.213C40.2583 150.626 40.4091 149.9 40.2719 149.202C34.9795 119.788 42.1369 89.5002 60.0373 65.5684C77.9364 41.6378 104.969 26.2144 134.678 22.9811C135.374 22.902 136.019 22.5745 136.493 22.0603Z" fill="white"/>
<path d="M145.599 31.864C144.37 30.2721 143.029 28.7073 141.661 27.1994C140.377 27.3947 139.12 27.59 137.863 27.8137C137.132 27.9435 136.483 28.3575 136.059 28.9644C135.635 29.5725 135.47 30.324 135.6 31.0532C135.629 31.2163 135.676 31.3758 135.739 31.529C136.19 32.8082 137.507 33.5671 138.84 33.3162C140.599 32.9813 142.359 32.7291 144.146 32.4782C144.683 32.4263 145.189 32.2125 145.599 31.864Z" fill="white"/>
<path d="M68.9459 78.8401C68.0795 80.1169 66.3429 80.4494 65.0662 79.5829C63.7894 78.7178 63.457 76.98 64.3234 75.7033C66.4183 72.6171 68.6999 69.5927 71.0989 66.7191C71.7293 65.9219 72.7415 65.5301 73.7439 65.6944C74.745 65.8588 75.5793 66.5547 75.9204 67.5113C76.2628 68.4679 76.0576 69.5346 75.3865 70.2959C73.1049 73.0311 70.937 75.9047 68.9459 78.8401Z" fill="white"/>
<path d="M53.6002 95.4563C55.0439 92.0154 56.6728 88.6029 58.4687 85.3115C58.9445 84.4352 59.853 83.8778 60.8504 83.8518C61.8478 83.8259 62.7834 84.3339 63.305 85.1842C63.8266 86.0346 63.855 87.1 63.3792 87.9763C61.6773 91.1107 60.1335 94.3279 58.7542 97.6155C58.1572 99.0381 56.5208 99.7092 55.097 99.1123C53.6744 98.5165 53.0045 96.8801 53.6002 95.4563Z" fill="white"/>
<path d="M48.1425 125.571H48.4219C49.1597 125.642 49.8395 126.003 50.3117 126.575C50.7826 127.147 51.0075 127.884 50.9358 128.622C50.5947 132.118 50.4241 135.684 50.4217 139.317C50.4204 140.052 50.1238 140.756 49.5985 141.272C49.0745 141.788 48.365 142.073 47.6296 142.062C46.0772 142.039 44.8326 140.772 44.8363 139.221C44.8363 135.506 45.018 131.755 45.3777 128.079C45.5235 126.66 46.7162 125.579 48.1425 125.571Z" fill="white"/>
<path d="M47.0178 116.954C47.7508 113.271 48.6691 109.627 49.7691 106.037C50.1287 104.863 51.2115 104.062 52.4388 104.062C52.7156 104.063 52.9912 104.104 53.257 104.184C53.9664 104.402 54.5597 104.89 54.907 105.545C55.2555 106.199 55.3284 106.965 55.1121 107.673C54.0665 111.085 53.1939 114.548 52.4969 118.047C52.1953 119.56 50.7245 120.542 49.2117 120.241C47.6976 119.939 46.7163 118.468 47.0178 116.954Z" fill="white"/>
<path d="M95.4386 48.2231C95.0332 47.6026 94.891 46.8462 95.0443 46.1219C95.1963 45.3964 95.6301 44.7624 96.2506 44.357C99.3874 42.3127 102.658 40.3994 105.974 38.6814C107.338 38.0029 108.996 38.543 109.698 39.8952C110.4 41.2485 109.887 42.9146 108.546 43.6389C105.395 45.2728 102.287 47.086 99.3182 49.0413C98.6953 49.4504 97.9364 49.5937 97.2072 49.4393C96.4792 49.286 95.8415 48.8485 95.4386 48.2231Z" fill="white"/>
<path d="M78.6963 62.3945C77.6161 61.2945 77.6321 59.5259 78.7321 58.4456C81.3944 55.8279 84.2235 53.3114 87.1429 50.9656C88.3454 49.9941 90.1067 50.182 91.0782 51.3846C92.0496 52.5872 91.8618 54.3484 90.6592 55.3199C87.8832 57.5545 85.1925 59.9449 82.66 62.4316C82.131 62.9544 81.4142 63.2449 80.6701 63.2375C79.9261 63.2313 79.2154 62.9272 78.6963 62.3945Z" fill="white"/>
<path d="M114.654 37.626C114.38 36.9376 114.389 36.1676 114.682 35.4865C114.975 34.8055 115.526 34.2691 116.216 33.9947C119.707 32.6068 123.265 31.3955 126.878 30.3635C127.126 30.2906 127.386 30.2547 127.645 30.2547C129.041 30.2522 130.223 31.2793 130.416 32.6599C130.61 34.0417 129.755 35.3543 128.414 35.735C125 36.7102 121.59 37.872 118.283 39.187C116.85 39.758 115.225 39.0585 114.654 37.626Z" fill="white"/>
<path d="M51.6403 155.485C51.361 153.698 51.1373 151.883 50.942 150.095C50.811 148.667 49.6109 147.575 48.1759 147.581H47.8966C46.3615 147.748 45.243 149.115 45.3839 150.654C45.5235 151.938 45.6632 153.224 45.8585 154.481C47.6654 155.424 49.5206 156.271 51.4166 157.022H51.4438C51.649 156.537 51.7169 156.006 51.6403 155.485Z" fill="white"/>
<path d="M12.9275 124.343C13.8631 123.811 14.407 122.789 14.3241 121.716C14.1845 119.929 14.1004 118.114 14.0732 116.298C14.0337 114.781 12.7965 113.57 11.28 113.562H11.2231C9.81659 113.596 8.65479 114.674 8.51389 116.075L12.9275 124.343Z" fill="white"/>
<path d="M23.0462 71.0845C21.4926 74.6317 20.1318 78.2617 18.9713 81.9572C18.6722 82.9101 17.8873 83.6307 16.9134 83.847C15.9382 84.0645 14.9223 83.7457 14.2474 83.009C13.5714 82.2736 13.3402 81.2342 13.6393 80.2813C14.8629 76.3904 16.2954 72.5676 17.9294 68.8301C18.3088 67.8846 19.1715 67.2208 20.1825 67.096C21.1935 66.9724 22.1909 67.4087 22.7879 68.2343C23.3837 69.06 23.4825 70.1439 23.0462 71.0647V71.0845Z" fill="white"/>
<path d="M16.1002 93.208C15.3487 97.0061 14.8024 100.843 14.4637 104.699C14.3933 105.706 13.7852 106.597 12.8718 107.03C11.9597 107.461 10.8844 107.367 10.0612 106.783C9.23686 106.198 8.79315 105.214 8.89944 104.211C9.2554 100.153 9.82889 96.1187 10.6199 92.1241C10.8127 91.144 11.5135 90.3406 12.459 90.018C13.4045 89.6954 14.4501 89.9018 15.2016 90.5606C15.9531 91.2194 16.2954 92.2279 16.1002 93.208Z" fill="white"/>
<path d="M69.03 20.3362C65.6558 22.2359 62.3867 24.3135 59.2337 26.5593C58.4217 27.1389 57.3625 27.2415 56.4541 26.8287C55.5456 26.4147 54.9264 25.5483 54.8312 24.5545C54.7348 23.5608 55.1761 22.5918 55.9881 22.0122C59.3029 19.649 62.7414 17.4651 66.2898 15.4677C67.6333 14.7113 69.3365 15.1884 70.0941 16.5319C70.8505 17.8766 70.3735 19.5798 69.03 20.3362Z" fill="white"/>
<path d="M41.9143 41.9691C40.8675 43.0617 39.1421 43.1223 38.021 42.1063C36.9 41.0891 36.7925 39.3662 37.7776 38.218C40.509 35.2023 43.3987 32.3336 46.4367 29.6268C47.5886 28.601 49.3548 28.7036 50.3794 29.8555C51.4053 31.0074 51.3027 32.7736 50.1508 33.7994C47.2623 36.3739 44.5123 39.1017 41.9143 41.9691Z" fill="white"/>
<path d="M90.3242 11.2421C86.6238 12.368 82.9876 13.693 79.4305 15.2107C78.0153 15.8015 76.3888 15.1415 75.7869 13.7313C75.1837 12.3211 75.8301 10.6896 77.2354 10.0753C80.9791 8.47227 84.8069 7.07316 88.7014 5.88541C88.9647 5.8063 89.2391 5.76552 89.5134 5.76552C90.8977 5.76552 92.0731 6.77901 92.2771 8.14845C92.4798 9.51789 91.6492 10.8292 90.3242 11.2309V11.2421Z" fill="white"/>
<path d="M28.2755 60.7186C27.5043 62.0559 25.795 62.5157 24.4577 61.7444C23.1203 60.9732 22.6606 59.2639 23.4318 57.9253C25.4613 54.3942 27.6786 50.9742 30.0739 47.6804C30.6004 46.9574 31.4421 46.5285 32.3369 46.5297C33.3875 46.531 34.3478 47.1217 34.8237 48.0586C35.2995 48.9955 35.2093 50.119 34.5901 50.9681C32.3122 54.1037 30.2049 57.358 28.2755 60.7186Z" fill="white"/>
<path d="M109.289 5.71981C106.343 4.64699 103.329 3.76946 100.267 3.09462C98.8757 3.55316 98.0785 5.01407 98.4481 6.43172C98.8176 7.84938 100.225 8.7368 101.664 8.45747C103.451 8.12252 105.238 7.8432 107.027 7.59229C108.081 7.46252 108.964 6.73206 109.289 5.71981Z" fill="white"/>
<path d="M26.1387 140.627C26.7456 140.007 27.0261 139.137 26.8926 138.28C26.6417 136.492 26.4465 134.705 26.2784 132.861C26.1486 131.417 24.9349 130.314 23.4851 130.32C23.4011 130.315 23.3158 130.325 23.2342 130.347C22.5 130.411 21.8203 130.766 21.3494 131.332C20.8772 131.898 20.651 132.63 20.7203 133.364C20.7759 133.978 20.8315 134.565 20.8883 135.151L26.1387 140.627Z" fill="white"/>
<path d="M85.8489 20.7131C86.756 20.2805 87.8264 20.3683 88.6495 20.9443C89.4739 21.519 89.9263 22.4917 89.8336 23.4928C89.7397 24.4927 89.1167 25.3665 88.2009 25.7806C84.8836 27.3218 81.6466 29.0324 78.5035 30.9061C77.1773 31.6959 75.4631 31.2608 74.6733 29.9346C73.8835 28.6097 74.3173 26.8942 75.6435 26.1044C78.9522 24.1355 82.3585 22.3372 85.8489 20.7131Z" fill="white"/>
<path d="M60.9047 43.9776C60.1681 44.6512 59.1274 44.8798 58.177 44.5795C57.2253 44.2779 56.506 43.4931 56.2909 42.5179C56.0758 41.544 56.3972 40.528 57.1338 39.8544C59.9765 37.2564 62.949 34.8043 66.0414 32.5091C66.5197 32.147 67.1031 31.9504 67.7025 31.9504C68.9051 31.9504 69.9718 32.7192 70.3524 33.86C70.7331 35.0008 70.3401 36.2565 69.3785 36.9783C66.4381 39.1672 63.609 41.5032 60.9047 43.9776Z" fill="white"/>
<path d="M108.914 18.6355C105.352 19.4673 101.836 20.4796 98.3764 21.6686C97.4272 22.0171 96.3643 21.8256 95.5967 21.168C94.8292 20.5117 94.477 19.4908 94.6747 18.4996C94.8725 17.5084 95.5906 16.7013 96.5521 16.3898C100.192 15.1353 103.895 14.0674 107.644 13.1924C109.129 12.8809 110.59 13.8128 110.936 15.2898C111.281 16.768 110.384 18.2499 108.914 18.6294V18.6355Z" fill="white"/>
<path d="M39.2966 65.7241C39.938 66.0961 40.4052 66.7067 40.5943 67.4236C40.7847 68.1392 40.6833 68.9018 40.3113 69.542C38.4734 72.7122 36.7999 75.9752 35.297 79.3185C34.6407 80.683 33.0154 81.275 31.6336 80.6533C30.253 80.0316 29.619 78.4212 30.2061 77.0245C31.7869 73.5119 33.5469 70.0809 35.4811 66.7487C36.2561 65.4163 37.963 64.9627 39.2966 65.7352V65.7241Z" fill="white"/>
<path d="M46.297 60.3367C45.3663 61.5096 43.678 61.742 42.4655 60.862C41.2543 59.9832 40.9515 58.3047 41.7796 57.0577C44.0401 53.9393 46.4577 50.9384 49.0223 48.066C50.0494 46.9154 51.8156 46.8152 52.9662 47.8423C54.1169 48.8706 54.217 50.6356 53.19 51.7863C50.7502 54.519 48.4488 57.3728 46.297 60.3367Z" fill="white"/>
<path d="M23.7978 107.833C23.9066 107.832 24.0153 107.839 24.1229 107.853C24.8582 107.937 25.5306 108.31 25.9904 108.891C26.4514 109.472 26.6628 110.211 26.5775 110.946C26.1535 114.584 25.9138 118.24 25.8594 121.902C25.8198 123.436 24.5629 124.659 23.0278 124.656C22.2862 124.646 21.5805 124.34 21.0638 123.81C20.5472 123.279 20.2629 122.564 20.2728 121.823C20.3272 117.974 20.5756 114.129 21.0169 110.305C21.18 108.892 22.3777 107.829 23.7978 107.833Z" fill="white"/>
<path d="M25.0633 102.247C23.5566 101.914 22.6049 100.424 22.9374 98.917C23.7717 95.1535 24.7975 91.4345 26.01 87.776C26.3895 86.6327 27.4573 85.8627 28.6612 85.8627C28.9603 85.8615 29.2569 85.9097 29.5412 86.0049C30.2444 86.2372 30.8266 86.7403 31.159 87.4027C31.4915 88.0652 31.5471 88.8315 31.3148 89.5348C30.1604 93.0115 29.1864 96.5452 28.3954 100.121C28.236 100.845 27.7947 101.475 27.1706 101.875C26.5452 102.273 25.7875 102.407 25.0633 102.247Z" fill="white"/>
<path d="M127.361 14.8535C125.266 13.4569 123.142 12.1443 120.936 10.9158H120.881C120.294 10.9998 119.679 11.0554 119.092 11.1395C117.635 11.4126 116.645 12.7771 116.838 14.2479C117.031 15.7187 118.34 16.7816 119.819 16.6691C121.606 16.4454 123.395 16.2786 125.237 16.1389C126.114 16.087 126.908 15.6062 127.361 14.8535Z" fill="white"/>
<path d="M62.8119 159.704C62.645 157.888 62.5053 156.1 62.3929 154.257C62.3199 152.784 61.1025 151.628 59.628 151.632H59.4599C57.9273 151.721 56.7556 153.031 56.8347 154.563C56.8904 156.072 57.03 157.609 57.1697 159.117C58.9853 159.704 60.8566 160.234 62.7278 160.681C62.8131 160.362 62.8415 160.031 62.8119 159.704Z" fill="white"/>
<path d="M91.7431 66.5003C92.4661 65.8119 93.5019 65.561 94.4597 65.8428C95.4176 66.1233 96.153 66.8946 96.3878 67.866C96.6239 68.8363 96.3236 69.8584 95.6005 70.5481C92.7986 73.2215 90.1425 76.0432 87.6422 78.9996C87.0056 79.7844 85.9934 80.1639 84.9972 79.9908C84.001 79.819 83.1754 79.1207 82.8392 78.1678C82.5043 77.2136 82.7094 76.1532 83.3769 75.3943C86.0045 72.2821 88.7978 69.3133 91.7431 66.5003Z" fill="white"/>
<path d="M121.83 45.8822C125.516 44.153 129.291 42.6242 133.141 41.3042C133.433 41.2028 133.738 41.1509 134.047 41.1509C135.412 41.1509 136.577 42.1384 136.801 43.4844C137.026 44.8316 136.244 46.1429 134.952 46.5854C131.292 47.8412 127.703 49.2946 124.202 50.9372C123.293 51.3945 122.209 51.3229 121.37 50.7494C120.531 50.1759 120.069 49.1921 120.165 48.1798C120.26 47.1676 120.898 46.2875 121.83 45.8822Z" fill="white"/>
<path d="M111.08 51.6577C112.395 50.8877 114.084 51.3129 114.878 52.6156C115.67 53.9171 115.272 55.614 113.984 56.4285C110.678 58.4419 107.483 60.6308 104.413 62.9866C103.187 63.8703 101.482 63.6206 100.563 62.4217C99.6432 61.2241 99.8422 59.5123 101.013 58.5569C104.242 56.0788 107.603 53.7762 111.08 51.6577Z" fill="white"/>
<path d="M69.7282 95.5984C71.6328 91.9981 73.729 88.5015 76.0094 85.1249C76.568 84.298 77.5259 83.8321 78.5208 83.9025C79.5158 83.973 80.3983 84.5699 80.8346 85.4673C81.2721 86.3646 81.1967 87.4263 80.638 88.2531C78.4702 91.458 76.4766 94.779 74.6683 98.1989C74.2024 99.0826 73.3001 99.6487 72.3027 99.6858C71.3053 99.7228 70.3635 99.226 69.832 98.3806C69.3006 97.5352 69.261 96.471 69.7282 95.5873V95.5984Z" fill="white"/>
<path d="M59.4686 145.291C57.9286 145.208 56.747 143.893 56.8298 142.352C57.0448 138.286 57.4787 134.234 58.1275 130.214C58.2882 129.229 58.9618 128.403 59.895 128.05C60.8294 127.695 61.8799 127.867 62.6536 128.497C63.4273 129.129 63.8043 130.125 63.6449 131.11C63.0269 134.931 62.6128 138.783 62.4064 142.649C62.3681 143.389 62.0369 144.082 61.4857 144.578C60.9344 145.074 60.2089 145.331 59.4686 145.291Z" fill="white"/>
<path d="M60.7317 118.279C61.8144 114.349 63.1097 110.482 64.6138 106.694C65.0353 105.628 66.0649 104.927 67.2106 104.927C68.1363 104.929 69.0015 105.387 69.5206 106.152C70.041 106.918 70.1472 107.891 69.8061 108.751C68.3786 112.353 67.1463 116.028 66.1168 119.763C65.6891 121.228 64.1652 122.079 62.6932 121.673C61.2211 121.268 60.3473 119.756 60.7317 118.279Z" fill="white"/>
<path d="M152.442 42.0025C151.493 40.3266 150.487 38.679 149.398 37.0587C147.89 37.3096 146.409 37.6173 144.957 37.9523C143.956 38.1451 143.14 38.8681 142.827 39.8371C142.515 40.8073 142.755 41.8703 143.454 42.6106C144.152 43.3522 145.199 43.6538 146.186 43.3992C147.946 43.0086 149.733 42.6724 151.52 42.3659C151.851 42.3165 152.166 42.1916 152.442 42.0025Z" fill="white"/>
<path d="M138.674 117.314C132.386 125.125 123.394 128.321 118.587 124.453C113.78 120.583 114.98 111.116 121.267 103.304C127.554 95.493 136.547 92.298 141.353 96.1666C146.16 100.035 144.96 109.504 138.674 117.314Z" fill="#E64C3C"/>
<path d="M101.992 143.904C97.4606 144.842 93.178 142.665 92.4278 139.04C91.6763 135.415 94.7415 131.714 99.2738 130.776C103.805 129.838 108.087 132.016 108.838 135.641C109.589 139.266 106.524 142.966 101.992 143.904Z" fill="#E64C3C"/>
</g>
<defs>
<filter id="filter0_d" x="0" y="0" width="172" height="172" filterUnits="userSpaceOnUse" color-interpolation-filters="sRGB">
<feFlood flood-opacity="0" result="BackgroundImageFix"/>
<feColorMatrix in="SourceAlpha" type="matrix" values="0 0 0 0 0 0 0 0 0 0 0 0 0 0 0 0 0 0 127 0"/>
<feOffset dx="4" dy="4"/>
<feGaussianBlur stdDeviation="2.5"/>
<feColorMatrix type="matrix" values="0 0 0 0 0 0 0 0 0 0 0 0 0 0 0 0 0 0 0.21 0"/>
<feBlend mode="normal" in2="BackgroundImageFix" result="effect1_dropShadow"/>
<feBlend mode="normal" in="SourceGraphic" in2="effect1_dropShadow" result="shape"/>
</filter>
<clipPath id="clip0">
<rect width="162" height="162" fill="white" transform="matrix(1 0 0 -1 1 163)"/>
</clipPath>
</defs>
</svg>
